<?xml version="1.0" encoding="utf-8"?>
<!-- Generator: Adobe Illustrator 27.2.0, SVG Export Plug-In . SVG Version: 6.00 Build 0)  -->
<svg version="1.1" id="Layer_1" xmlns="http://www.w3.org/2000/svg" xmlns:xlink="http://www.w3.org/1999/xlink" x="0px" y="0px"
	 viewBox="0 0 18.3 10" style="enable-background:new 0 0 18.3 10;" xml:space="preserve">
<style type="text/css">
	.st0{fill:#FFFFFF;stroke:#000000;stroke-width:0.1;stroke-miterlimit:10;}
</style>
<g id="M">
	<path class="st0" d="M0.2,10c0,0,0.7,0,1.3-0.7c2-1.3,0.7-6.6,0.7-6.6c0.7,0,1.3,4,2.7,4S7.5,2,8.2,2S6.8,7.3,8.8,9.3
		c0,0,0.7,0.7,1.3,0.7c0.7,0,0-2.7,0-6c0-2,0.7-2.7,0-3.3C8.8,0,8.2,0,7.5,0c-2,0.7-2,3.3-2.7,3.3S3.5,0.7,2.2,0c-0.7,0-2,0-2,0.7
		c-0.7,1.3,0.7,2,0.7,4C1.5,7.3-0.5,9.3,0.2,10z"/>
</g>
<g id="G">
	<path class="st0" d="M16.1,0.7c-1.3-0.7-6,0.7-6.6,4c0,1.3,0.7,2.7,1.3,3.3c1.3,1.3,4,1.3,5.3,0.7c0.7-0.7,0.7-2,0.7-2.7
		c0,0-0.7,0-1.3,0c-0.7,0.7,0,1.3,0,2c-0.7,0-4-1.3-4-3.3c0-1.3,0.7-2,2-2c1.3-0.7,2.7,0,2.7-0.7C16.8,1.3,16.8,0.7,16.1,0.7
		L16.1,0.7z"/>
	<path class="st0" d="M14.1,4.6c0,0,1.3,0,2.7,0c0.7,0,0.7-0.7,1.3,0c0,0,0,0.7,0,1.3C17.4,6,14.1,4.6,14.1,4.6L14.1,4.6z"/>
</g>
</svg>
