<svg width="90" height="91" viewBox="0 0 90 91" fill="none" xmlns="http://www.w3.org/2000/svg">
<g clip-path="url(#clip0_84_129)">
<path d="M0 6.82125C0 3.26063 2.95875 0.375 6.60937 0.375H83.3906C87.0413 0.375 90 3.26063 90 6.82125V83.9287C90 87.4894 87.0413 90.375 83.3906 90.375H6.60937C2.95875 90.375 0 87.4894 0 83.9287V6.82125ZM27.8044 75.7162V35.0756H14.2987V75.7162H27.8044ZM21.0544 29.5238C25.7625 29.5238 28.6931 26.4075 28.6931 22.5037C28.6087 18.5156 25.7681 15.4838 21.1444 15.4838C16.5206 15.4838 13.5 18.5212 13.5 22.5037C13.5 26.4075 16.4306 29.5238 20.9644 29.5238H21.0544ZM48.6619 75.7162V53.0194C48.6619 51.8044 48.7519 50.5894 49.1119 49.7231C50.085 47.2987 52.3069 44.7844 56.0419 44.7844C60.93 44.7844 62.8819 48.5081 62.8819 53.9756V75.7162H76.3875V52.4062C76.3875 39.9188 69.7275 34.1138 60.84 34.1138C53.6737 34.1138 50.4619 38.0513 48.6619 40.8244V40.965H48.5719C48.6017 40.918 48.6317 40.8712 48.6619 40.8244V35.0756H35.1619C35.3306 38.8894 35.1619 75.7162 35.1619 75.7162H48.6619Z" fill="black"/>
</g>
<defs>
<clipPath id="clip0_84_129">
<rect width="90" height="90" fill="white" transform="translate(0 0.375)"/>
</clipPath>
</defs>
</svg>
