<svg width="120" height="121" viewBox="0 0 120 121" fill="none" xmlns="http://www.w3.org/2000/svg">
<path d="M12.018 35.679L60 59.667L107.982 35.679C107.804 32.6217 106.465 29.7479 104.237 27.6464C102.009 25.5448 99.0625 24.3744 96 24.375H24C20.9375 24.3744 17.9907 25.5448 15.7631 27.6464C13.5355 29.7479 12.1956 32.6217 12.018 35.679Z" fill="black"/>
<path d="M108 49.083L60 73.083L12 49.083V84.375C12 87.5576 13.2643 90.6099 15.5147 92.8603C17.7652 95.1107 20.8174 96.375 24 96.375H96C99.1826 96.375 102.235 95.1107 104.485 92.8603C106.736 90.6099 108 87.5576 108 84.375V49.083Z" fill="black"/>
</svg>
