<svg width="90" height="91" viewBox="0 0 90 91" fill="none" xmlns="http://www.w3.org/2000/svg">
<path d="M48.855 7.87876C51.5915 7.86826 54.328 7.89576 57.0638 7.96126L57.7913 7.98751C58.6313 8.01751 59.46 8.05501 60.4613 8.10001C64.4513 8.28751 67.1738 8.91751 69.5625 9.84376C72.0375 10.7963 74.1225 12.0863 76.2075 14.1713C78.1139 16.0448 79.5894 18.3111 80.5313 20.8125C81.4575 23.2013 82.0875 25.9275 82.275 29.9175C82.32 30.915 82.3575 31.7475 82.3875 32.5875L82.41 33.315C82.4767 36.0495 82.5054 38.7847 82.4963 41.52L82.5 44.3175V49.23C82.5093 51.9665 82.4805 54.703 82.4138 57.4388L82.3913 58.1663C82.3613 59.0063 82.3238 59.835 82.2788 60.8363C82.0913 64.8263 81.4538 67.5488 80.5313 69.9375C79.5925 72.4416 78.1166 74.7097 76.2075 76.5825C74.3324 78.4887 72.0649 79.9641 69.5625 80.9063C67.1738 81.8325 64.4513 82.4625 60.4613 82.65C59.46 82.695 58.6313 82.7325 57.7913 82.7625L57.0638 82.785C54.3281 82.8517 51.5915 82.8804 48.855 82.8713L46.0575 82.875H41.1488C38.4123 82.8843 35.6757 82.8555 32.94 82.7888L32.2125 82.7663C31.3223 82.734 30.4323 82.6965 29.5425 82.6538C25.5525 82.4663 22.83 81.8288 20.4375 80.9063C17.9351 79.9663 15.6684 78.4906 13.7963 76.5825C11.8877 74.7086 10.4109 72.4409 9.46878 69.9375C8.54253 67.5488 7.91253 64.8263 7.72503 60.8363C7.68326 59.9464 7.64576 59.0564 7.61253 58.1663L7.59378 57.4388C7.52464 54.7031 7.49339 51.9666 7.50003 49.23V41.52C7.48956 38.7848 7.51706 36.0495 7.58253 33.315L7.60878 32.5875C7.63878 31.7475 7.67628 30.915 7.72128 29.9175C7.90878 25.9238 8.53878 23.205 9.46503 20.8125C10.4077 18.3098 11.8874 16.0442 13.8 14.175C15.6709 12.2653 17.9361 10.7872 20.4375 9.84376C22.83 8.91751 25.5488 8.28751 29.5425 8.10001L32.2125 7.98751L32.94 7.96876C35.6745 7.89966 38.4097 7.8684 41.145 7.87501L48.855 7.87876ZM45 26.6288C42.5157 26.5936 40.0491 27.0526 37.7437 27.979C35.4383 28.9054 33.34 30.2808 31.5707 32.0252C29.8014 33.7696 28.3965 35.8483 27.4376 38.1404C26.4787 40.4325 25.9849 42.8923 25.9849 45.3769C25.9849 47.8615 26.4787 50.3213 27.4376 52.6134C28.3965 54.9055 29.8014 56.9841 31.5707 58.7286C33.34 60.473 35.4383 61.8483 37.7437 62.7748C40.0491 63.7012 42.5157 64.1601 45 64.125C49.9728 64.125 54.742 62.1496 58.2583 58.6333C61.7746 55.117 63.75 50.3478 63.75 45.375C63.75 40.4022 61.7746 35.6331 58.2583 32.1168C54.742 28.6005 49.9728 26.6288 45 26.6288ZM45 34.1288C46.4944 34.1012 47.9793 34.3717 49.368 34.9245C50.7567 35.4773 52.0213 36.3013 53.0879 37.3483C54.1546 38.3953 55.0019 39.6444 55.5804 41.0225C56.1589 42.4007 56.457 43.8803 56.4573 45.375C56.4575 46.8696 56.1599 48.3493 55.5819 49.7277C55.0038 51.1061 54.1569 52.3554 53.0906 53.4028C52.0243 54.4501 50.76 55.2745 49.3715 55.8278C47.983 56.381 46.4982 56.6521 45.0038 56.625C42.0201 56.625 39.1586 55.4397 37.0488 53.33C34.939 51.2202 33.7538 48.3587 33.7538 45.375C33.7538 42.3913 34.939 39.5298 37.0488 37.4201C39.1586 35.3103 42.0201 34.125 45.0038 34.125L45 34.1288ZM64.6875 21.0038C63.4777 21.0522 62.3336 21.5668 61.4948 22.4399C60.656 23.313 60.1875 24.4768 60.1875 25.6875C60.1875 26.8983 60.656 28.062 61.4948 28.9351C62.3336 29.8082 63.4777 30.3228 64.6875 30.3713C65.9307 30.3713 67.123 29.8774 68.0021 28.9983C68.8812 28.1192 69.375 26.927 69.375 25.6838C69.375 24.4406 68.8812 23.2483 68.0021 22.3692C67.123 21.4901 65.9307 20.9963 64.6875 20.9963V21.0038Z" fill="black"/>
</svg>
